<svg width="24" height="24" viewBox="0 0 24 24"  xmlns="http://www.w3.org/2000/svg">
<path fill-rule="evenodd" clip-rule="evenodd" d="M16 5.7H8C6.72975 5.7 5.7 6.72975 5.7 8V16C5.7 17.2703 6.72975 18.3 8 18.3H16C17.2703 18.3 18.3 17.2703 18.3 16V8C18.3 6.72975 17.2703 5.7 16 5.7ZM8 4C5.79086 4 4 5.79086 4 8V16C4 18.2091 5.79086 20 8 20H16C18.2091 20 20 18.2091 20 16V8C20 5.79086 18.2091 4 16 4H8Z" />
<path fill-rule="evenodd" clip-rule="evenodd" d="M16 9.7H8C6.72975 9.7 5.7 10.7297 5.7 12V16C5.7 17.2703 6.72975 18.3 8 18.3H16C17.2703 18.3 18.3 17.2703 18.3 16V12C18.3 10.7297 17.2703 9.7 16 9.7ZM8 8C5.79086 8 4 9.79086 4 12V16C4 18.2091 5.79086 20 8 20H16C18.2091 20 20 18.2091 20 16V12C20 9.79086 18.2091 8 16 8H8Z" />
<path fill-rule="evenodd" clip-rule="evenodd" d="M8.9999 6.85C8.53046 6.85 8.1499 6.46944 8.1499 6V3C8.1499 2.53056 8.53046 2.15 8.9999 2.15C9.46934 2.15 9.8499 2.53056 9.8499 3V6C9.8499 6.46944 9.46934 6.85 8.9999 6.85Z" />
<path fill-rule="evenodd" clip-rule="evenodd" d="M14.9999 6.85C14.5305 6.85 14.1499 6.46944 14.1499 6V3C14.1499 2.53056 14.5305 2.15 14.9999 2.15C15.4693 2.15 15.8499 2.53056 15.8499 3V6C15.8499 6.46944 15.4693 6.85 14.9999 6.85Z" />
<path d="M8 13C8 12.4477 8.44772 12 9 12H11C11.5523 12 12 12.4477 12 13V15C12 15.5523 11.5523 16 11 16H9C8.44772 16 8 15.5523 8 15V13Z" />
</svg>
