<svg width="47" height="47" viewBox="0 0 47 47" fill="none" xmlns="http://www.w3.org/2000/svg">
<path fill-rule="evenodd" clip-rule="evenodd" d="M32.889 13.6794C27.5844 8.37478 18.9839 8.37478 13.6793 13.6794C8.37469 18.984 8.37469 27.5845 13.6793 32.8891C18.9839 38.1938 27.5844 38.1938 32.889 32.8891C38.1937 27.5845 38.1937 18.984 32.889 13.6794ZM11.6758 11.6759C18.0869 5.26483 28.4814 5.26483 34.8925 11.6759C41.3036 18.087 41.3036 28.4815 34.8925 34.8926C28.4814 41.3037 18.0869 41.3037 11.6758 34.8926C5.26474 28.4815 5.26474 18.087 11.6758 11.6759Z" fill="white"/>
<path fill-rule="evenodd" clip-rule="evenodd" d="M17.5686 17.5685C18.1218 17.0152 19.0188 17.0152 19.572 17.5685L29.0001 26.9966C29.5534 27.5498 29.5534 28.4468 29.0001 29C28.4469 29.5533 27.5499 29.5533 26.9967 29L17.5686 19.5719C17.0153 19.0187 17.0153 18.1217 17.5686 17.5685Z" fill="white"/>
<path fill-rule="evenodd" clip-rule="evenodd" d="M17.5681 29.0001C17.0149 28.4468 17.0149 27.5498 17.5681 26.9966L26.9962 17.5685C27.5495 17.0153 28.4465 17.0153 28.9997 17.5685C29.5529 18.1217 29.5529 19.0187 28.9997 19.572L19.5716 29.0001C19.0184 29.5533 18.1214 29.5533 17.5681 29.0001Z" fill="white"/>
</svg>
