<svg width="16" height="16" viewBox="0 0 16 16" fill="none" xmlns="http://www.w3.org/2000/svg">
<path fill-rule="evenodd" clip-rule="evenodd" d="M4 0C1.79086 0 0 1.79086 0 4V12C0 14.2091 1.79086 16 4 16H12C14.2091 16 16 14.2091 16 12V4C16 1.79086 14.2091 0 12 0H4ZM12.509 6.65339C12.8392 6.31977 12.8392 5.77887 12.509 5.44525C12.1787 5.11163 11.6432 5.11163 11.313 5.44525L7.54247 9.25404C7.48437 9.31273 7.39023 9.31294 7.33188 9.2545L5.41501 7.33494C5.08331 7.00278 4.54785 7.00513 4.21903 7.3402C3.8902 7.67526 3.89253 8.21616 4.22423 8.54832L6.14109 10.4679C6.86081 11.1886 8.02187 11.1861 8.73847 10.4622L12.509 6.65339Z" fill="#F50000"/>
</svg>
